<svg xmlns="http://www.w3.org/2000/svg" viewBox="0 0 240 200" width="240" height="200" fill="none"><g transform="translate(80 0)"><path d="M18 22 L40 60" stroke="#0B7A57" stroke-width="12" stroke-linecap="round"></path><path d="M40 60 L62 22" stroke="#A8BB1E" stroke-width="12" stroke-linecap="round"></path></g><path d="M52 128L45.84 128L45.84 99.20L58.72 99.20Q61.84 99.20 64.16 100.26Q66.48 101.32 67.76 103.24Q69.04 105.16 69.04 107.72L69.04 107.72Q69.04 110.24 67.76 112.14Q66.48 114.04 64.16 115.10Q61.84 116.16 58.72 116.16L58.72 116.16L50.72 116.16L50.72 111.64L58.56 111.64Q60.76 111.64 61.94 110.62Q63.12 109.60 63.12 107.76L63.12 107.76Q63.12 105.88 61.96 104.90Q60.80 103.92 58.56 103.92L58.56 103.92L52 103.92L52 128ZM70.40 128L62.08 128L50.52 113.04L57.04 113.04L70.40 128ZM79.68 128L73.52 128L73.52 99.20L79.68 99.20L79.68 128ZM94.96 128L76.40 128L76.40 123.28L94.96 123.28L94.96 128ZM93.56 115.60L76.40 115.60L76.40 110.96L93.56 110.96L93.56 115.60ZM94.48 103.92L76.40 103.92L76.40 99.20L94.48 99.20L94.48 103.92ZM113 128.40L113 128.40Q109.88 128.40 107.24 127.30Q104.60 126.20 102.66 124.20Q100.72 122.20 99.64 119.46Q98.56 116.72 98.56 113.48L98.56 113.48Q98.56 110.24 99.62 107.56Q100.68 104.88 102.62 102.90Q104.56 100.92 107.20 99.86Q109.84 98.80 113 98.80L113 98.80Q116.56 98.80 119.42 100.18Q122.28 101.56 124.10 104.06Q125.92 106.56 126.32 109.92L126.32 109.92L120.32 109.92Q119.80 106.84 117.80 105.26Q115.80 103.68 113.04 103.68L113.04 103.68Q110.60 103.68 108.74 104.84Q106.88 106 105.84 108.18Q104.80 110.36 104.80 113.44L104.80 113.44Q104.80 116.56 105.86 118.82Q106.92 121.08 108.80 122.30Q110.68 123.52 113.12 123.52L113.12 123.52Q115.72 123.52 117.72 121.96Q119.72 120.40 120.32 117.32L120.32 117.32L126.40 117.32Q125.88 120.68 124.04 123.18Q122.20 125.68 119.36 127.04Q116.52 128.40 113 128.40Z" fill="#14231C"></path><path d="M132.5 102.2 L142.2 125" stroke="#0B7A57" stroke-width="6" stroke-linecap="round"></path><path d="M142.2 125 L151.9 102.2" stroke="#A8BB1E" stroke-width="6" stroke-linecap="round"></path><path d="M165.46 128L159.30 128L159.30 99.20L165.46 99.20L165.46 128ZM184.78 128L178.62 128L178.62 103.92L169.22 103.92L169.22 99.20L194.18 99.20L194.18 103.92L184.78 103.92L184.78 128Z" fill="#14231C"></path><path d="M28.50 155.17L28.50 158L27.70 158L27.70 151.37L30.12 151.37Q31.04 151.37 31.52 151.87Q32.01 152.38 32.01 153.28L32.01 153.28Q32.01 154.09 31.59 154.57Q31.17 155.06 30.37 155.13L30.37 155.13L32.07 158L31.17 158L29.56 155.17L28.50 155.17ZM28.50 154.49L30.10 154.49Q30.60 154.49 30.88 154.24Q31.16 153.99 31.16 153.53L31.16 153.53L31.16 153.03Q31.16 152.57 30.88 152.31Q30.60 152.06 30.10 152.06L30.10 152.06L28.50 152.06L28.50 154.49ZM38.69 158L34.60 158L34.60 151.37L38.69 151.37L38.69 152.06L35.40 152.06L35.40 154.29L38.58 154.29L38.58 154.99L35.40 154.99L35.40 157.31L38.69 157.31L38.69 158ZM44.87 158L44.87 157.12L44.82 157.12Q44.73 157.31 44.62 157.49Q44.51 157.67 44.33 157.81Q44.16 157.94 43.91 158.03Q43.66 158.11 43.32 158.11L43.32 158.11Q42.24 158.11 41.71 157.24Q41.18 156.37 41.18 154.73L41.18 154.73Q41.18 153.02 41.76 152.14Q42.34 151.25 43.55 151.25L43.55 151.25Q44.01 151.25 44.35 151.38Q44.70 151.50 44.94 151.71Q45.18 151.92 45.34 152.18Q45.50 152.44 45.61 152.71L45.61 152.71L44.92 153.02Q44.84 152.80 44.73 152.61Q44.62 152.41 44.46 152.27Q44.31 152.12 44.09 152.03Q43.87 151.95 43.58 151.95L43.58 151.95Q42.78 151.95 42.40 152.55Q42.03 153.15 42.03 154.14L42.03 154.14L42.03 155.17Q42.03 155.67 42.10 156.09Q42.18 156.50 42.36 156.80Q42.53 157.11 42.81 157.27Q43.09 157.44 43.50 157.44L43.50 157.44Q44.15 157.44 44.51 157.05Q44.87 156.66 44.87 156.04L44.87 156.04L44.87 155.36L43.47 155.36L43.47 154.72L45.61 154.72L45.61 158L44.87 158ZM52.45 158L48.35 158L48.35 157.36L50.00 157.36L50.00 152.01L48.35 152.01L48.35 151.37L52.45 151.37L52.45 152.01L50.80 152.01L50.80 157.36L52.45 157.36L52.45 158ZM57.28 158.11L57.28 158.11Q56.39 158.11 55.82 157.79Q55.25 157.46 54.88 156.95L54.88 156.95L55.46 156.47Q55.85 156.96 56.28 157.19Q56.71 157.43 57.31 157.43L57.31 157.43Q58.03 157.43 58.41 157.10Q58.79 156.76 58.79 156.17L58.79 156.17Q58.79 155.68 58.52 155.41Q58.24 155.14 57.56 155.03L57.56 155.03L56.82 154.90Q56.33 154.82 56.00 154.65Q55.68 154.48 55.48 154.23Q55.28 153.99 55.19 153.70Q55.11 153.41 55.11 153.10L55.11 153.10Q55.11 152.19 55.70 151.72Q56.30 151.25 57.32 151.25L57.32 151.25Q58.12 151.25 58.66 151.52Q59.21 151.79 59.54 152.27L59.54 152.27L58.98 152.76Q58.71 152.40 58.32 152.17Q57.93 151.94 57.31 151.94L57.31 151.94Q56.63 151.94 56.27 152.22Q55.91 152.51 55.91 153.08L55.91 153.08Q55.91 153.53 56.18 153.81Q56.45 154.09 57.16 154.21L57.16 154.21L57.87 154.33Q58.35 154.42 58.69 154.59Q59.02 154.76 59.22 155.00Q59.43 155.24 59.51 155.53Q59.60 155.82 59.60 156.15L59.60 156.15Q59.60 157.07 59.00 157.59Q58.39 158.11 57.28 158.11ZM66.81 152.06L64.60 152.06L64.60 158L63.80 158L63.80 152.06L61.59 152.06L61.59 151.37L66.81 151.37L66.81 152.06ZM69.90 155.17L69.90 158L69.10 158L69.10 151.37L71.52 151.37Q72.44 151.37 72.92 151.87Q73.41 152.38 73.41 153.28L73.41 153.28Q73.41 154.09 72.99 154.57Q72.57 155.06 71.77 155.13L71.77 155.13L73.47 158L72.57 158L70.96 155.17L69.90 155.17ZM69.90 154.49L71.50 154.49Q72.00 154.49 72.28 154.24Q72.56 153.99 72.56 153.53L72.56 153.53L72.56 153.03Q72.56 152.57 72.28 152.31Q72.00 152.06 71.50 152.06L71.50 152.06L69.90 152.06L69.90 154.49ZM80.09 158L76.00 158L76.00 151.37L80.09 151.37L80.09 152.06L76.80 152.06L76.80 154.29L79.98 154.29L79.98 154.99L76.80 154.99L76.80 157.31L80.09 157.31L80.09 158ZM89.85 158L89.85 151.37L91.70 151.37Q92.92 151.37 93.52 152.21Q94.12 153.04 94.12 154.68L94.12 154.68Q94.12 156.33 93.52 157.16Q92.92 158 91.70 158L91.70 158L89.85 158ZM90.65 157.31L91.67 157.31Q92.46 157.31 92.87 156.76Q93.27 156.20 93.27 155.20L93.27 155.20L93.27 154.17Q93.27 153.16 92.87 152.61Q92.46 152.06 91.67 152.06L91.67 152.06L90.65 152.06L90.65 157.31ZM100.79 158L96.70 158L96.70 151.37L100.79 151.37L100.79 152.06L97.50 152.06L97.50 154.29L100.68 154.29L100.68 154.99L97.50 154.99L97.50 157.31L100.79 157.31L100.79 158ZM114.73 158L110.79 158L110.79 151.37L111.59 151.37L111.59 157.31L114.73 157.31L114.73 158ZM119.76 153.60L119.04 153.60L119.04 150.97L119.76 150.97L119.76 153.60ZM128.39 158L124.30 158L124.30 151.37L128.39 151.37L128.39 152.06L125.10 152.06L125.10 154.29L128.28 154.29L128.28 154.99L125.10 154.99L125.10 157.31L128.39 157.31L128.39 158ZM127.42 149.32L126.41 150.83L125.92 150.60L126.73 148.98L127.42 149.32ZM135.81 152.06L133.60 152.06L133.60 158L132.80 158L132.80 152.06L130.59 152.06L130.59 151.37L135.81 151.37L135.81 152.06ZM142.66 158L141.82 158L141.26 156.11L138.93 156.11L138.37 158L137.54 158L139.58 151.37L140.63 151.37L142.66 158ZM141.07 155.42L140.14 152.21L140.05 152.21L139.12 155.42L141.07 155.42ZM149.61 152.06L147.40 152.06L147.40 158L146.60 158L146.60 152.06L144.39 152.06L144.39 151.37L149.61 151.37L149.61 152.06ZM161.02 158.11L161.02 158.11Q159.80 158.11 159.21 157.23Q158.62 156.35 158.62 154.68L158.62 154.68Q158.62 153.02 159.21 152.14Q159.80 151.25 161.02 151.25L161.02 151.25Q161.47 151.25 161.81 151.38Q162.14 151.50 162.38 151.71Q162.61 151.92 162.78 152.18Q162.94 152.44 163.06 152.71L163.06 152.71L162.38 153.02Q162.29 152.80 162.18 152.61Q162.06 152.41 161.91 152.27Q161.75 152.12 161.54 152.03Q161.32 151.95 161.02 151.95L161.02 151.95Q160.23 151.95 159.85 152.55Q159.46 153.15 159.46 154.14L159.46 154.14L159.46 155.23Q159.46 156.22 159.85 156.82Q160.23 157.42 161.02 157.42L161.02 157.42Q161.32 157.42 161.54 157.34Q161.75 157.25 161.91 157.10Q162.06 156.96 162.18 156.76Q162.29 156.57 162.38 156.35L162.38 156.35L163.06 156.66Q162.94 156.94 162.78 157.19Q162.61 157.45 162.38 157.66Q162.14 157.87 161.81 157.99Q161.47 158.11 161.02 158.11ZM169.75 158L165.65 158L165.65 157.36L167.30 157.36L167.30 152.01L165.65 152.01L165.65 151.37L169.75 151.37L169.75 152.01L168.10 152.01L168.10 157.36L169.75 157.36L169.75 158ZM175.14 158L174.06 158L172.09 151.37L172.94 151.37L173.88 154.68L174.59 157.19L174.64 157.19L175.35 154.68L176.29 151.37L177.11 151.37L175.14 158ZM183.55 158L179.45 158L179.45 157.36L181.10 157.36L181.10 152.01L179.45 152.01L179.45 151.37L183.55 151.37L183.55 152.01L181.90 152.01L181.90 157.36L183.55 157.36L183.55 158ZM190.63 158L186.69 158L186.69 151.37L187.49 151.37L187.49 157.31L190.63 157.31L190.63 158ZM204.29 158L200.21 158L200.21 151.37L204.29 151.37L204.29 152.06L201.00 152.06L201.00 154.29L204.18 154.29L204.18 154.99L201.00 154.99L201.00 157.31L204.29 157.31L204.29 158ZM211.71 152.06L209.50 152.06L209.50 158L208.70 158L208.70 152.06L206.49 152.06L206.49 151.37L211.71 151.37L211.71 152.06Z" fill="#64736C"></path><path d="M38.10 172L38.10 165.37L39.95 165.37Q41.17 165.37 41.77 166.21Q42.37 167.04 42.37 168.68L42.37 168.68Q42.37 170.33 41.77 171.16Q41.17 172 39.95 172L39.95 172L38.10 172ZM38.90 171.31L39.92 171.31Q40.71 171.31 41.12 170.76Q41.52 170.20 41.52 169.20L41.52 169.20L41.52 168.17Q41.52 167.16 41.12 166.61Q40.71 166.06 39.92 166.06L39.92 166.06L38.90 166.06L38.90 171.31ZM49.04 172L44.95 172L44.95 165.37L49.04 165.37L49.04 166.06L45.75 166.06L45.75 168.29L48.93 168.29L48.93 168.99L45.75 168.99L45.75 171.31L49.04 171.31L49.04 172ZM53.83 172.11L53.83 172.11Q52.94 172.11 52.37 171.79Q51.80 171.46 51.43 170.95L51.43 170.95L52.01 170.47Q52.40 170.96 52.83 171.19Q53.26 171.43 53.86 171.43L53.86 171.43Q54.58 171.43 54.96 171.10Q55.34 170.76 55.34 170.17L55.34 170.17Q55.34 169.68 55.07 169.41Q54.79 169.14 54.11 169.03L54.11 169.03L53.37 168.90Q52.88 168.82 52.55 168.65Q52.23 168.48 52.03 168.23Q51.83 167.99 51.74 167.70Q51.66 167.41 51.66 167.10L51.66 167.10Q51.66 166.19 52.25 165.72Q52.85 165.25 53.87 165.25L53.87 165.25Q54.67 165.25 55.21 165.52Q55.76 165.79 56.09 166.27L56.09 166.27L55.53 166.76Q55.26 166.40 54.87 166.17Q54.48 165.94 53.86 165.94L53.86 165.94Q53.18 165.94 52.82 166.22Q52.46 166.51 52.46 167.08L52.46 167.08Q52.46 167.53 52.73 167.81Q53.00 168.09 53.71 168.21L53.71 168.21L54.42 168.33Q54.90 168.42 55.24 168.59Q55.57 168.76 55.77 169.00Q55.98 169.24 56.06 169.53Q56.15 169.82 56.15 170.15L56.15 170.15Q56.15 171.07 55.55 171.59Q54.94 172.11 53.83 172.11ZM66.45 172L65.65 172L65.65 165.37L69.83 165.37L69.83 166.06L66.45 166.06L66.45 168.29L69.55 168.29L69.55 168.99L66.45 168.99L66.45 172ZM77.11 172L76.27 172L75.71 170.11L73.38 170.11L72.82 172L71.99 172L74.03 165.37L75.08 165.37L77.11 172ZM75.52 169.42L74.59 166.21L74.50 166.21L73.57 169.42L75.52 169.42ZM83.50 172L79.40 172L79.40 171.36L81.05 171.36L81.05 166.01L79.40 166.01L79.40 165.37L83.50 165.37L83.50 166.01L81.85 166.01L81.85 171.36L83.50 171.36L83.50 172ZM90.96 166.06L88.75 166.06L88.75 172L87.95 172L87.95 166.06L85.74 166.06L85.74 165.37L90.96 165.37L90.96 166.06ZM95.23 172.11L95.23 172.11Q94.34 172.11 93.77 171.79Q93.20 171.46 92.83 170.95L92.83 170.95L93.41 170.47Q93.80 170.96 94.23 171.19Q94.66 171.43 95.26 171.43L95.26 171.43Q95.98 171.43 96.36 171.10Q96.74 170.76 96.74 170.17L96.74 170.17Q96.74 169.68 96.47 169.41Q96.19 169.14 95.51 169.03L95.51 169.03L94.77 168.90Q94.28 168.82 93.95 168.65Q93.63 168.48 93.43 168.23Q93.23 167.99 93.14 167.70Q93.06 167.41 93.06 167.10L93.06 167.10Q93.06 166.19 93.65 165.72Q94.25 165.25 95.27 165.25L95.27 165.25Q96.07 165.25 96.61 165.52Q97.16 165.79 97.49 166.27L97.49 166.27L96.93 166.76Q96.66 166.40 96.27 166.17Q95.88 165.94 95.26 165.94L95.26 165.94Q94.58 165.94 94.22 166.22Q93.86 166.51 93.86 167.08L93.86 167.08Q93.86 167.53 94.13 167.81Q94.40 168.09 95.11 168.21L95.11 168.21L95.82 168.33Q96.30 168.42 96.64 168.59Q96.97 168.76 97.17 169.00Q97.38 169.24 97.46 169.53Q97.55 169.82 97.55 170.15L97.55 170.15Q97.55 171.07 96.95 171.59Q96.34 172.11 95.23 172.11ZM109.59 172L108.51 172L106.54 165.37L107.39 165.37L108.33 168.68L109.04 171.19L109.09 171.19L109.80 168.68L110.74 165.37L111.56 165.37L109.59 172ZM118.00 172L113.90 172L113.90 171.36L115.55 171.36L115.55 166.01L113.90 166.01L113.90 165.37L118.00 165.37L118.00 166.01L116.35 166.01L116.35 171.36L118.00 171.36L118.00 172ZM125.46 166.06L123.25 166.06L123.25 172L122.45 172L122.45 166.06L120.24 166.06L120.24 165.37L125.46 165.37L125.46 166.06ZM132.31 172L131.47 172L130.91 170.11L128.58 170.11L128.02 172L127.19 172L129.23 165.37L130.28 165.37L132.31 172ZM130.72 169.42L129.79 166.21L129.70 166.21L128.77 169.42L130.72 169.42ZM134.56 165.37L135.36 165.37L135.36 169.35Q135.36 169.83 135.39 170.21Q135.42 170.59 135.54 170.86Q135.66 171.14 135.92 171.28Q136.18 171.42 136.65 171.42L136.65 171.42Q137.12 171.42 137.38 171.28Q137.64 171.14 137.76 170.86Q137.89 170.59 137.91 170.21Q137.94 169.83 137.94 169.35L137.94 169.35L137.94 165.37L138.74 165.37L138.74 169.16Q138.74 169.90 138.67 170.45Q138.60 171.00 138.37 171.37Q138.15 171.74 137.74 171.93Q137.32 172.11 136.65 172.11L136.65 172.11Q135.98 172.11 135.56 171.93Q135.15 171.74 134.93 171.37Q134.70 171.00 134.63 170.45Q134.56 169.90 134.56 169.16L134.56 169.16L134.56 165.37ZM144.04 168.61L146.16 172L145.26 172L144.47 170.68L143.60 169.24L143.56 169.24L142.66 170.68L141.82 172L140.95 172L143.11 168.62L141.07 165.37L141.97 165.37L142.74 166.65L143.57 167.99L143.61 167.99L144.42 166.65L145.22 165.37L146.10 165.37L144.04 168.61ZM155.40 172L155.40 165.37L157.26 165.37Q158.47 165.37 159.07 166.21Q159.67 167.04 159.67 168.68L159.67 168.68Q159.67 170.33 159.07 171.16Q158.47 172 157.26 172L157.26 172L155.40 172ZM156.20 171.31L157.22 171.31Q158.02 171.31 158.42 170.76Q158.82 170.20 158.82 169.20L158.82 169.20L158.82 168.17Q158.82 167.16 158.42 166.61Q158.02 166.06 157.22 166.06L157.22 166.06L156.20 166.06L156.20 171.31ZM162.16 165.37L162.96 165.37L162.96 169.35Q162.96 169.83 162.99 170.21Q163.02 170.59 163.14 170.86Q163.26 171.14 163.52 171.28Q163.78 171.42 164.25 171.42L164.25 171.42Q164.72 171.42 164.98 171.28Q165.24 171.14 165.36 170.86Q165.49 170.59 165.51 170.21Q165.54 169.83 165.54 169.35L165.54 169.35L165.54 165.37L166.34 165.37L166.34 169.16Q166.34 169.90 166.27 170.45Q166.20 171.00 165.97 171.37Q165.75 171.74 165.34 171.93Q164.92 172.11 164.25 172.11L164.25 172.11Q163.58 172.11 163.16 171.93Q162.75 171.74 162.53 171.37Q162.30 171.00 162.23 170.45Q162.16 169.90 162.16 169.16L162.16 169.16L162.16 165.37ZM180.66 166.06L178.45 166.06L178.45 172L177.65 172L177.65 166.06L175.44 166.06L175.44 165.37L180.66 165.37L180.66 166.06ZM184.95 172.11L184.95 172.11Q184.34 172.11 183.91 171.88Q183.47 171.65 183.18 171.21Q182.90 170.77 182.77 170.14Q182.63 169.50 182.63 168.68L182.63 168.68Q182.63 167.88 182.77 167.24Q182.90 166.59 183.18 166.16Q183.47 165.72 183.91 165.49Q184.34 165.25 184.95 165.25L184.95 165.25Q185.56 165.25 186.00 165.49Q186.43 165.72 186.72 166.16Q187.00 166.59 187.14 167.24Q187.27 167.88 187.27 168.68L187.27 168.68Q187.27 169.50 187.14 170.14Q187.00 170.77 186.72 171.21Q186.43 171.65 186.00 171.88Q185.56 172.11 184.95 172.11ZM184.95 171.42L184.95 171.42Q185.35 171.42 185.62 171.26Q185.90 171.11 186.08 170.82Q186.26 170.54 186.34 170.13Q186.42 169.73 186.42 169.23L186.42 169.23L186.42 168.14Q186.42 167.65 186.34 167.24Q186.26 166.83 186.08 166.55Q185.90 166.26 185.62 166.11Q185.35 165.95 184.95 165.95L184.95 165.95Q184.55 165.95 184.28 166.11Q184.00 166.26 183.82 166.55Q183.64 166.83 183.56 167.24Q183.48 167.65 183.48 168.14L183.48 168.14L183.48 169.23Q183.48 169.73 183.56 170.13Q183.64 170.54 183.82 170.82Q184.00 171.11 184.28 171.26Q184.55 171.42 184.95 171.42ZM193.22 172L193.22 171.12L193.17 171.12Q193.09 171.31 192.97 171.49Q192.86 171.67 192.68 171.81Q192.51 171.94 192.26 172.03Q192.01 172.11 191.67 172.11L191.67 172.11Q190.59 172.11 190.06 171.24Q189.53 170.37 189.53 168.73L189.53 168.73Q189.53 167.02 190.11 166.14Q190.69 165.25 191.90 165.25L191.90 165.25Q192.36 165.25 192.71 165.38Q193.05 165.50 193.29 165.71Q193.53 165.92 193.69 166.18Q193.85 166.44 193.96 166.71L193.96 166.71L193.28 167.02Q193.19 166.80 193.08 166.61Q192.97 166.41 192.81 166.27Q192.66 166.12 192.44 166.03Q192.22 165.95 191.93 165.95L191.93 165.95Q191.13 165.95 190.75 166.55Q190.38 167.15 190.38 168.14L190.38 168.14L190.38 169.17Q190.38 169.67 190.45 170.09Q190.53 170.50 190.71 170.80Q190.88 171.11 191.16 171.27Q191.44 171.44 191.85 171.44L191.85 171.44Q192.50 171.44 192.86 171.05Q193.22 170.66 193.22 170.04L193.22 170.04L193.22 169.36L191.82 169.36L191.82 168.72L193.96 168.72L193.96 172L193.22 172ZM198.75 172.11L198.75 172.11Q198.14 172.11 197.71 171.88Q197.27 171.65 196.98 171.21Q196.70 170.77 196.57 170.14Q196.43 169.50 196.43 168.68L196.43 168.68Q196.43 167.88 196.57 167.24Q196.70 166.59 196.98 166.16Q197.27 165.72 197.71 165.49Q198.14 165.25 198.75 165.25L198.75 165.25Q199.36 165.25 199.80 165.49Q200.23 165.72 200.52 166.16Q200.80 166.59 200.94 167.24Q201.07 167.88 201.07 168.68L201.07 168.68Q201.07 169.50 200.94 170.14Q200.80 170.77 200.52 171.21Q200.23 171.65 199.80 171.88Q199.36 172.11 198.75 172.11ZM198.75 171.42L198.75 171.42Q199.15 171.42 199.42 171.26Q199.70 171.11 199.88 170.82Q200.06 170.54 200.14 170.13Q200.22 169.73 200.22 169.23L200.22 169.23L200.22 168.14Q200.22 167.65 200.14 167.24Q200.06 166.83 199.88 166.55Q199.70 166.26 199.42 166.11Q199.15 165.95 198.75 165.95L198.75 165.95Q198.35 165.95 198.08 166.11Q197.80 166.26 197.62 166.55Q197.44 166.83 197.36 167.24Q197.28 167.65 197.28 168.14L197.28 168.14L197.28 169.23Q197.28 169.73 197.36 170.13Q197.44 170.54 197.62 170.82Q197.80 171.11 198.08 171.26Q198.35 171.42 198.75 171.42Z" fill="#64736C"></path></svg>